<svg width="667" height="667" viewBox="0 0 667 667" fill="none" xmlns="http://www.w3.org/2000/svg">
<path d="M583.175 324.243H547.783L608 179.669H452.324C446.408 179.669 441.073 183.231 438.806 188.692L313.773 489.835C297.683 528.587 242.847 528.763 226.509 490.115L136.173 276.42C131.146 264.529 114.302 264.498 109.23 276.371L60.335 390.841H148.901L112.599 423.51H10.8545L79.1865 263.538C95.5783 225.163 150.016 225.264 166.265 263.7L256.602 477.395L256.847 477.946C262.183 489.347 278.7 489.11 283.601 477.309L408.634 176.165C415.965 158.508 433.205 147 452.324 147H656.998L583.175 324.243Z" fill="url(#paint0_linear_2729_764)"/>
<defs>
<linearGradient id="paint0_linear_2729_764" x1="20.9187" y1="414.03" x2="667.566" y2="223.319" gradientUnits="userSpaceOnUse">
<stop offset="0.0961538" stop-color="#38BDF8"/>
<stop offset="0.802885" stop-color="#14B8A6"/>
<stop offset="1" stop-color="#09FCE1"/>
</linearGradient>
</defs>
</svg>
