<svg width="667" height="667" viewBox="0 0 667 667" fill="none" xmlns="http://www.w3.org/2000/svg">
<path d="M552.564 208L506.043 319.706H496.293L539.066 217H417.832C410.759 217 404.381 221.258 401.669 227.79L312.854 441.723C303.841 463.433 273.123 463.531 263.971 441.88L199.802 290.07C193.791 275.851 173.653 275.814 167.589 290.011L128.631 381.226H183.788L173.788 390.226H115L159.312 286.476C168.495 264.977 198.99 265.034 208.092 286.566L272.261 438.376C278.305 452.674 298.59 452.609 304.542 438.272L393.357 224.339C397.464 214.447 407.122 208 417.832 208H552.564Z" fill="#38BDF8"/>
<path d="M552.564 208L506.043 319.706H496.293L539.066 217H417.832C410.759 217 404.381 221.258 401.669 227.79L312.854 441.723C303.841 463.433 273.123 463.531 263.971 441.88L199.802 290.07C193.791 275.851 173.653 275.814 167.589 290.011L128.631 381.226H183.788L173.788 390.226H115L159.312 286.476C168.495 264.977 198.99 265.034 208.092 286.566L272.261 438.376C278.305 452.674 298.59 452.609 304.542 438.272L393.357 224.339C397.464 214.447 407.122 208 417.832 208H552.564Z" fill="url(#paint0_linear_2717_795)"/>
<defs>
<linearGradient id="paint0_linear_2717_795" x1="121.815" y1="387.5" x2="559.2" y2="257.549" gradientUnits="userSpaceOnUse">
<stop offset="0.0961538" stop-color="#38BDF8"/>
<stop offset="0.802885" stop-color="#14B8A6"/>
<stop offset="1" stop-color="#09FCE1"/>
</linearGradient>
</defs>
</svg>
