<svg width="102" height="100" viewBox="0 0 102 100" fill="none" xmlns="http://www.w3.org/2000/svg">
<path d="M6 46.6671C29.2201 48.3525 47.0317 44.9124 52.5155 6M39.131 11.9365L52.5155 6L61 17.9516" stroke="#FCF88D" stroke-width="5" stroke-linecap="round" stroke-linejoin="round"/>
<path d="M42.8958 79.6807C37.4886 81.3018 34.2443 76.4386 31 72.1158C31 68.3333 35.8665 64.0107 37.4886 60.7686C39.1108 57.5265 49.9251 54.8247 53.7101 51.5826C57.4951 48.3405 67.7687 59.6878 73.7166 59.6878C79.6645 59.6878 79.1238 66.172 80.7459 72.1158C82.3681 78.0597 75.8795 79.6807 71.013 79.6807C66.1466 79.6807 48.3029 78.0597 42.8958 79.6807Z" fill="#3B3F2E" stroke="#FCF88D" stroke-width="5" stroke-linecap="round" stroke-linejoin="round"/>
</svg>
